<svg id="Calque_1" data-name="Calque 1" xmlns="http://www.w3.org/2000/svg" viewBox="0 0 349.87 143.69"><defs><style>.cls-1{fill:#fff;}.cls-2{fill:#e47e3d;}.cls-3{fill:#bdca8b;}.cls-4{fill:#d293ae;}.cls-5{fill:#ffe97f;}.cls-6{fill:#ffd600;}.cls-7{fill:#9d1d64;}</style></defs><title>logo violet utilisé</title><ellipse class="cls-1" cx="151.17" cy="23.88" rx="10.34" ry="10.3"/><ellipse class="cls-1" cx="155.66" cy="6.42" rx="6.44" ry="6.42"/><ellipse class="cls-1" cx="350.3" cy="329.3" rx="8.12" ry="8.16" transform="matrix(0, -1, 1, 0, -159.8, 364.24)"/><path class="cls-1" d="M365.79,340.94c.71,2.75-22.77,27.23-43.45,32.57s-40.44-6.08-41.16-8.83c0,0,21.33,4.54,42-.8S365.07,338.2,365.79,340.94Z" transform="translate(-180.41 -314.99)"/><path class="cls-1" d="M380.24,336.35c7.46,23.06-8.63,48.85-35.94,57.61s-54.07,1.63-61.53-21.42.14,6.51,27.44-2.25S372.79,313.3,380.24,336.35Z" transform="translate(-180.41 -314.99)"/><path class="cls-1" d="M358.32,393.77l-14.67,6.46a1.69,1.69,0,0,1-2.23-.86h0a1.68,1.68,0,0,1,.86-2.22L357,390.69a1.69,1.69,0,0,1,2.23.86h0A1.68,1.68,0,0,1,358.32,393.77Z" transform="translate(-180.41 -314.99)"/><path class="cls-1" d="M299.93,365.57A24,24,0,0,1,315,342.86C318.25,341.47,309,366.43,299.93,365.57Z" transform="translate(-180.41 -314.99)"/><path class="cls-1" d="M289.92,342.11a24.14,24.14,0,0,1,10.66,25.26C299.94,370.88,284.16,349.2,289.92,342.11Z" transform="translate(-180.41 -314.99)"/><path class="cls-1" d="M299.32,365.75a24.09,24.09,0,0,1,25.6-9.48C328.38,357.06,306.12,371.77,299.32,365.75Z" transform="translate(-180.41 -314.99)"/><path class="cls-1" d="M300.76,368.16s-9.35-15.58,3.32-29.79C306.65,335.49,310.35,365,300.76,368.16Z" transform="translate(-180.41 -314.99)"/><path class="cls-1" d="M300.73,368.05a24.12,24.12,0,0,1-23.92-13.39C275.16,351.49,300.92,358.92,300.73,368.05Z" transform="translate(-180.41 -314.99)"/><path class="cls-1" d="M183.06,417.18v-2.4h14.4q18.78,0,18.78,11.4,0,7.92-9.3,10.32v.42Q218,438.6,218,446a8.65,8.65,0,0,1-4.92,8.07q-4.92,2.67-13.86,2.67h-16.2v-2.4h3.6v-37.2Zm14.34,0h-1.74v18.54h1.74a10.12,10.12,0,0,0,7-2.52,8.83,8.83,0,0,0,2.79-6.9,8.37,8.37,0,0,0-2.79-6.75A10.51,10.51,0,0,0,197.4,417.18ZM198.66,438h-3v16.38h3a11.66,11.66,0,0,0,7.2-2.16,7.75,7.75,0,0,0,0-12.06A11.66,11.66,0,0,0,198.66,438Z" transform="translate(-180.41 -314.99)"/><path class="cls-1" d="M229.65,453.09a16.71,16.71,0,0,1,0-22.62,16.68,16.68,0,0,1,23,0,16.71,16.71,0,0,1,0,22.62,16.68,16.68,0,0,1-23,0Zm6.57-20.94a28.44,28.44,0,0,0,0,19.26q1.68,3.75,5,3.75t5-3.75a28.44,28.44,0,0,0,0-19.26q-1.68-3.75-5-3.75T236.22,432.15Z" transform="translate(-180.41 -314.99)"/><path class="cls-1" d="M297.3,429.54v20a3.55,3.55,0,0,0,1.2,2.91,4.56,4.56,0,0,0,3,1q3.78,0,6.54-3.93a16.33,16.33,0,0,0,2.76-9.63,18,18,0,0,0-1.14-6.06,4.88,4.88,0,0,1-2.76.72,4.19,4.19,0,0,1-3-1.35,4.64,4.64,0,0,1,0-6.54,4.6,4.6,0,0,1,3.39-1.35,4.7,4.7,0,0,1,3.51,1.53,9,9,0,0,1,2.13,4.05,35.76,35.76,0,0,1,1.08,8.58,23.61,23.61,0,0,1-1,7.32,15.3,15.3,0,0,1-2.64,5.07,17.47,17.47,0,0,1-3.66,3.33,12.84,12.84,0,0,1-7.32,2.52q-7.14,0-9.84-4.68a13.28,13.28,0,0,1-4.68,3.48,12.36,12.36,0,0,1-5,1.2,12,12,0,0,1-8.07-2.55q-3-2.55-3-7.47v-18.9a9.28,9.28,0,0,0-5,2.94l-1.62-1.86a12.6,12.6,0,0,1,4.41-2.88,14,14,0,0,1,5.28-1.08,8,8,0,0,1,4.29,1.05,3,3,0,0,1,1.68,2.61v20a3.55,3.55,0,0,0,1.2,2.91,4.56,4.56,0,0,0,3,1q4.08,0,6.36-4-.06-.54-.06-1.74v-18.9a9.28,9.28,0,0,0-5,2.94l-1.62-1.86a12.6,12.6,0,0,1,4.41-2.88,14,14,0,0,1,5.28-1.08,8,8,0,0,1,4.29,1.05A3,3,0,0,1,297.3,429.54Z" transform="translate(-180.41 -314.99)"/><path class="cls-1" d="M322,412a14,14,0,0,1,5.28-1.08,8,8,0,0,1,4.29,1.05,3,3,0,0,1,1.68,2.61v35.58a3.85,3.85,0,0,0,.78,2.55,3,3,0,0,0,2.4.93,6.2,6.2,0,0,0,3.72-1.74l1.08,1.44q-4.8,4.38-9.6,4.38-7.38,0-7.38-8.82v-35.1a9.28,9.28,0,0,0-5,2.94l-1.62-1.86A12.6,12.6,0,0,1,322,412Z" transform="translate(-180.41 -314.99)"/><path class="cls-1" d="M351.54,425.88q5.64,0,5.64,4.86v19.38a3.85,3.85,0,0,0,.78,2.55,3,3,0,0,0,2.4.93,6.2,6.2,0,0,0,3.72-1.74l1.08,1.44q-4.8,4.38-9.6,4.38-7.38,0-7.38-8.82v-20.1a9.28,9.28,0,0,0-5,2.94l-1.62-1.86a12.6,12.6,0,0,1,4.41-2.88A14.82,14.82,0,0,1,351.54,425.88ZM349.29,420a4.78,4.78,0,1,1,3.39,1.41A4.62,4.62,0,0,1,349.29,420Z" transform="translate(-180.41 -314.99)"/><path class="cls-1" d="M383.82,457.68a15.29,15.29,0,0,1-11.55-4.59,16.71,16.71,0,0,1,0-22.62,15.22,15.22,0,0,1,11.49-4.59,14.81,14.81,0,0,1,7.74,2.28,7,7,0,0,1,3.78,6.18,4.79,4.79,0,0,1-8.19,3.39,4.42,4.42,0,0,1-1.41-3.21,4.82,4.82,0,0,1,3.48-4.8,9.67,9.67,0,0,0-3.84-.72,6.64,6.64,0,0,0-6.09,3.57,17.87,17.87,0,0,0-2.07,9.06,17,17,0,0,0,2.07,8.91,6.69,6.69,0,0,0,6.09,3.42,11.58,11.58,0,0,0,9.18-4.5l1.68,1.08a15.34,15.34,0,0,1-5.19,5.19A13.54,13.54,0,0,1,383.82,457.68Z" transform="translate(-180.41 -314.99)"/><path class="cls-1" d="M409.2,425.88q5.64,0,5.64,4.86v19.38a3.85,3.85,0,0,0,.78,2.55,3,3,0,0,0,2.4.93,6.2,6.2,0,0,0,3.72-1.74l1.08,1.44q-4.8,4.38-9.6,4.38-7.38,0-7.38-8.82v-20.1a9.28,9.28,0,0,0-5,2.94l-1.62-1.86a12.6,12.6,0,0,1,4.41-2.88A14.82,14.82,0,0,1,409.2,425.88ZM407,420a4.78,4.78,0,1,1,3.39,1.41A4.62,4.62,0,0,1,407,420Z" transform="translate(-180.41 -314.99)"/><path class="cls-1" d="M429.93,453.09a16.71,16.71,0,0,1,0-22.62,16.68,16.68,0,0,1,23,0,16.71,16.71,0,0,1,0,22.62,16.68,16.68,0,0,1-23,0Zm6.57-20.94a28.44,28.44,0,0,0,0,19.26q1.68,3.75,5,3.75t5-3.75a28.44,28.44,0,0,0,0-19.26q-1.68-3.75-5-3.75T436.5,432.15Z" transform="translate(-180.41 -314.99)"/><path class="cls-1" d="M477.66,429.54v20.58A3.66,3.66,0,0,0,478.8,453a4.6,4.6,0,0,0,3.18,1,6,6,0,0,0,4-1.68,5.54,5.54,0,0,0,1.92-4.38V426.78h9v23.34a3.85,3.85,0,0,0,.78,2.55,3,3,0,0,0,2.4.93,6.2,6.2,0,0,0,3.72-1.74l1.08,1.44c-3.21,2.92-6.46,4.38-9.78,4.38s-5.52-1.48-6.6-4.44a13.84,13.84,0,0,1-4.83,3.45,17.4,17.4,0,0,1-6.36,1,8.44,8.44,0,0,1-6.24-2.37,8.72,8.72,0,0,1-2.37-6.45v-20.1a9.28,9.28,0,0,0-5,2.94L462,429.84a12.6,12.6,0,0,1,4.41-2.88,14,14,0,0,1,5.28-1.08,8,8,0,0,1,4.29,1.05A3.07,3.07,0,0,1,477.66,429.54Z" transform="translate(-180.41 -314.99)"/><path class="cls-1" d="M514.13,431.7a7.52,7.52,0,0,1-1.44-4,4.22,4.22,0,0,1,1.36-3.09,4.42,4.42,0,0,1,3.26-1.35,4.49,4.49,0,0,1,3.28,1.35,4.41,4.41,0,0,1,1.34,3.21,6.21,6.21,0,0,1-1.85,4,37.06,37.06,0,0,1,7.55,7.05,12.77,12.77,0,0,1,2.64,8,10,10,0,0,1-3.42,7.68q-3.4,3.15-9.72,3.15a14.51,14.51,0,0,1-5.79-1.26,11.29,11.29,0,0,1-4.41-3.12l1.38-1.44A9,9,0,0,0,514,454a7.49,7.49,0,0,0,5-1.65q2-1.65,2-5.13,0-5.52-4.08-11.52L507.84,447l-1.5-1.32Q510.89,438.3,514.13,431.7Z" transform="translate(-180.41 -314.99)"/><ellipse class="cls-2" cx="148.52" cy="24.88" rx="10.34" ry="10.3"/><ellipse class="cls-3" cx="153.01" cy="7.42" rx="6.44" ry="6.42"/><ellipse class="cls-4" cx="347.64" cy="330.3" rx="8.12" ry="8.16" transform="translate(-163.46 362.58) rotate(-89.94)"/><path class="cls-5" d="M363.13,342c.72,2.75-22.77,27.22-43.45,32.57s-40.44-6.09-41.15-8.83c0,0,21.33,4.54,42-.81S362.42,339.2,363.13,342Z" transform="translate(-180.41 -314.99)"/><path class="cls-6" d="M377.59,337.36C385,360.41,369,386.2,341.65,395s-54.08,1.62-61.54-21.43.14,6.52,27.45-2.25S370.13,314.3,377.59,337.36Z" transform="translate(-180.41 -314.99)"/><path class="cls-7" d="M355.66,394.78,341,401.23a1.7,1.7,0,0,1-2.24-.86h0a1.69,1.69,0,0,1,.87-2.22l14.66-6.46a1.7,1.7,0,0,1,2.23.86h0A1.69,1.69,0,0,1,355.66,394.78Z" transform="translate(-180.41 -314.99)"/><path class="cls-4" d="M297.28,366.57a23.94,23.94,0,0,1,15.05-22.7C315.6,342.47,306.33,367.43,297.28,366.57Z" transform="translate(-180.41 -314.99)"/><path class="cls-4" d="M287.26,343.11a24.15,24.15,0,0,1,10.67,25.27C297.28,371.88,281.5,350.2,287.26,343.11Z" transform="translate(-180.41 -314.99)"/><path class="cls-7" d="M296.66,366.75a24.09,24.09,0,0,1,25.6-9.48C325.73,358.07,303.46,372.77,296.66,366.75Z" transform="translate(-180.41 -314.99)"/><path class="cls-7" d="M298.11,369.17s-9.36-15.59,3.31-29.8C304,336.49,307.69,366,298.11,369.17Z" transform="translate(-180.41 -314.99)"/><path class="cls-7" d="M298.07,369.06a24.14,24.14,0,0,1-23.92-13.4C272.51,352.49,298.27,359.92,298.07,369.06Z" transform="translate(-180.41 -314.99)"/><path class="cls-7" d="M180.41,418.19v-2.41h14.4q18.76,0,18.77,11.41c0,5.27-3.1,8.72-9.29,10.31v.42q11.09,1.69,11.1,9.12a8.64,8.64,0,0,1-4.93,8.07c-3.28,1.79-7.9,2.67-13.86,2.67H180.41v-2.4H184V418.19Zm14.34,0H193v18.54h1.75a10.12,10.12,0,0,0,7-2.53,8.78,8.78,0,0,0,2.79-6.9,8.36,8.36,0,0,0-2.79-6.75A10.55,10.55,0,0,0,194.75,418.19ZM196,439h-3v16.38h3a11.73,11.73,0,0,0,7.21-2.15,7.78,7.78,0,0,0,0-12.07A11.74,11.74,0,0,0,196,439Z" transform="translate(-180.41 -314.99)"/><path class="cls-7" d="M227,454.09a16.7,16.7,0,0,1,0-22.61,16.65,16.65,0,0,1,23,0,16.7,16.7,0,0,1,0,22.61,16.65,16.65,0,0,1-23,0Zm6.57-20.94a28.44,28.44,0,0,0,0,19.26q1.68,3.75,5,3.75t5-3.75a28.44,28.44,0,0,0,0-19.26c-1.12-2.49-2.78-3.75-5-3.75S234.68,430.66,233.56,433.15Z" transform="translate(-180.41 -314.99)"/><path class="cls-7" d="M294.64,430.54v20a3.58,3.58,0,0,0,1.2,2.92,4.61,4.61,0,0,0,3,1q3.78,0,6.54-3.93a16.29,16.29,0,0,0,2.76-9.63A18,18,0,0,0,307,434.8a4.88,4.88,0,0,1-2.76.72,4.19,4.19,0,0,1-3-1.35,4.64,4.64,0,0,1,0-6.54,4.6,4.6,0,0,1,3.39-1.35,4.67,4.67,0,0,1,3.51,1.54,9,9,0,0,1,2.13,4,35.82,35.82,0,0,1,1.08,8.58,23.68,23.68,0,0,1-1,7.33,15.15,15.15,0,0,1-2.64,5.06,17.2,17.2,0,0,1-3.66,3.33,12.86,12.86,0,0,1-7.32,2.53q-7.14,0-9.84-4.69a13.16,13.16,0,0,1-4.68,3.48,12.39,12.39,0,0,1-5,1.21,12,12,0,0,1-8.07-2.56c-2-1.69-3-4.19-3-7.47V429.77a9.33,9.33,0,0,0-5,2.93l-1.62-1.86a12.89,12.89,0,0,1,4.41-2.88,14,14,0,0,1,5.28-1.08,7.88,7.88,0,0,1,4.29,1.06,3,3,0,0,1,1.68,2.6v20a3.58,3.58,0,0,0,1.2,2.92,4.61,4.61,0,0,0,3,1c2.72,0,4.84-1.33,6.36-4,0-.36-.06-.93-.06-1.74V429.77a9.33,9.33,0,0,0-5,2.93L279,430.84a12.89,12.89,0,0,1,4.41-2.88,14,14,0,0,1,5.28-1.08,7.88,7.88,0,0,1,4.29,1.06A3,3,0,0,1,294.64,430.54Z" transform="translate(-180.41 -314.99)"/><path class="cls-7" d="M319.33,413a14,14,0,0,1,5.28-1.08,7.88,7.88,0,0,1,4.29,1.06,3,3,0,0,1,1.68,2.6v35.58a3.83,3.83,0,0,0,.78,2.55,2.93,2.93,0,0,0,2.4.94,6.22,6.22,0,0,0,3.72-1.75l1.08,1.44q-4.8,4.4-9.6,4.39-7.38,0-7.38-8.83V414.77a9.33,9.33,0,0,0-5,2.93l-1.62-1.86A12.89,12.89,0,0,1,319.33,413Z" transform="translate(-180.41 -314.99)"/><path class="cls-7" d="M348.88,426.88q5.64,0,5.64,4.86v19.38a3.83,3.83,0,0,0,.78,2.55,2.93,2.93,0,0,0,2.4.94,6.22,6.22,0,0,0,3.72-1.75l1.08,1.44q-4.8,4.4-9.6,4.39-7.38,0-7.38-8.83V429.77a9.33,9.33,0,0,0-5,2.93l-1.62-1.86a12.89,12.89,0,0,1,4.41-2.88A14.82,14.82,0,0,1,348.88,426.88Zm-2.25-5.9a4.8,4.8,0,1,1,3.39,1.4A4.64,4.64,0,0,1,346.63,421Z" transform="translate(-180.41 -314.99)"/><path class="cls-7" d="M381.16,458.69a15.3,15.3,0,0,1-11.55-4.6,16.7,16.7,0,0,1,0-22.61,15.19,15.19,0,0,1,11.49-4.6,14.91,14.91,0,0,1,7.74,2.28,7,7,0,0,1,3.78,6.18,4.79,4.79,0,0,1-8.19,3.39,4.39,4.39,0,0,1-1.41-3.21,4.8,4.8,0,0,1,3.48-4.79,9.5,9.5,0,0,0-3.84-.73,6.64,6.64,0,0,0-6.09,3.57,17.89,17.89,0,0,0-2.07,9.06,17,17,0,0,0,2.07,8.91,6.69,6.69,0,0,0,6.09,3.42,11.58,11.58,0,0,0,9.18-4.5l1.68,1.08a15.25,15.25,0,0,1-5.19,5.19A13.55,13.55,0,0,1,381.16,458.69Z" transform="translate(-180.41 -314.99)"/><path class="cls-7" d="M406.54,426.88q5.64,0,5.64,4.86v19.38a3.83,3.83,0,0,0,.78,2.55,2.93,2.93,0,0,0,2.4.94,6.22,6.22,0,0,0,3.72-1.75l1.08,1.44q-4.8,4.4-9.6,4.39-7.38,0-7.38-8.83V429.77a9.33,9.33,0,0,0-5,2.93l-1.62-1.86a12.89,12.89,0,0,1,4.41-2.88A14.82,14.82,0,0,1,406.54,426.88Zm-2.25-5.9a4.8,4.8,0,1,1,3.39,1.4A4.64,4.64,0,0,1,404.29,421Z" transform="translate(-180.41 -314.99)"/><path class="cls-7" d="M427.27,454.09a16.7,16.7,0,0,1,0-22.61,16.65,16.65,0,0,1,23,0,16.7,16.7,0,0,1,0,22.61,16.65,16.65,0,0,1-23,0Zm6.57-20.94a28.44,28.44,0,0,0,0,19.26q1.68,3.75,5,3.75t5-3.75a28.44,28.44,0,0,0,0-19.26c-1.12-2.49-2.78-3.75-5-3.75S435,430.66,433.84,433.15Z" transform="translate(-180.41 -314.99)"/><path class="cls-7" d="M475,430.54v20.58a3.66,3.66,0,0,0,1.14,2.88,4.55,4.55,0,0,0,3.18,1,5.94,5.94,0,0,0,4-1.68A5.52,5.52,0,0,0,485.2,449V427.78h9v23.34a3.83,3.83,0,0,0,.78,2.55,2.93,2.93,0,0,0,2.4.94,6.22,6.22,0,0,0,3.72-1.75l1.08,1.44q-4.8,4.4-9.78,4.39t-6.6-4.45a13.71,13.71,0,0,1-4.83,3.45,17.17,17.17,0,0,1-6.36,1,8.48,8.48,0,0,1-6.24-2.37,8.74,8.74,0,0,1-2.37-6.46V429.77a9.33,9.33,0,0,0-5,2.93l-1.62-1.86a12.89,12.89,0,0,1,4.41-2.88,14,14,0,0,1,5.28-1.08,7.88,7.88,0,0,1,4.29,1.06A3,3,0,0,1,475,430.54Z" transform="translate(-180.41 -314.99)"/><path class="cls-7" d="M511.48,432.7a7.47,7.47,0,0,1-1.44-4,4.27,4.27,0,0,1,1.35-3.09,4.64,4.64,0,0,1,6.54,0,4.4,4.4,0,0,1,1.35,3.21,6.13,6.13,0,0,1-1.86,4,37.16,37.16,0,0,1,7.56,7.05,12.82,12.82,0,0,1,2.64,8,10,10,0,0,1-3.42,7.67q-3.42,3.15-9.72,3.16a14.33,14.33,0,0,1-5.79-1.27,11.19,11.19,0,0,1-4.41-3.12l1.38-1.44a8.92,8.92,0,0,0,5.7,2.1,7.48,7.48,0,0,0,5-1.64q1.95-1.65,2-5.13,0-5.52-4.08-11.53L505.18,448l-1.5-1.31Q508.24,439.31,511.48,432.7Z" transform="translate(-180.41 -314.99)"/></svg>